# Blender v2.81 (sub 16) OBJ File: 'little_place.blend'
# www.blender.org
o Plane
v -13.600000 0.000000 19.600000
v -15.400001 3.600000 19.600000
v -13.600000 0.000000 -5.600000
v 11.600000 0.000000 -5.600000
v -15.400001 3.600000 -7.400001
v 11.600000 3.600000 -7.400001
v -19.000000 3.600000 19.600000
v -19.000000 3.600000 -11.000000
v 11.600000 3.600000 -11.000000
v 11.600000 0.000000 -11.000000
v -19.000000 0.000000 19.600000
vt 0.000000 0.000000
vt 0.000000 0.000000
vt 0.000000 0.000000
vt 0.000000 0.000000
vt 0.000000 0.000000
vt 0.000000 0.000000
vt 0.000000 0.000000
vt 0.000000 0.000000
vt 0.000000 0.000000
vt 0.000000 0.000000
vt 0.000000 0.000000
vn 0.0000 0.4472 0.8944
vn 0.8944 0.4472 0.0000
vn 0.0000 1.0000 0.0000
vn 1.0000 0.0000 0.0000
vn 0.0000 0.0000 1.0000
s off
f 6/1/1 3/2/1 4/3/1
f 3/2/2 2/4/2 1/5/2
f 9/6/3 5/7/3 6/1/3
f 7/8/3 5/7/3 8/9/3
f 10/10/4 6/1/4 4/3/4
f 11/11/5 2/4/5 7/8/5
f 6/1/1 5/7/1 3/2/1
f 3/2/2 5/7/2 2/4/2
f 9/6/3 8/9/3 5/7/3
f 7/8/3 2/4/3 5/7/3
f 10/10/4 9/6/4 6/1/4
f 11/11/5 1/5/5 2/4/5
o Plane.001
v -13.600000 0.000000 19.600000
v 11.600000 0.000000 19.600000
v -13.600000 0.000000 -5.600000
v 11.600000 0.000000 -5.600000
v -0.482618 0.000000 7.517382
v -0.482618 0.000000 17.282619
v 9.282619 0.000000 17.282619
v 9.282619 0.000000 7.517382
v 0.982168 -3.600000 8.982168
v 0.982168 -3.600000 15.817832
v 7.817832 -3.600000 15.817832
v 7.817832 -3.600000 8.982168
vt 0.306245 0.306245
vt 0.693755 0.306245
vt 0.693755 0.306245
vt 0.000000 0.000000
vt 0.306245 0.693755
vt 1.000000 0.000000
vt 0.693755 0.693755
vt 1.000000 1.000000
vt 0.306245 0.693755
vt 0.306245 0.306245
vt 0.693755 0.693755
vt 0.000000 1.000000
vn 0.0000 -0.3769 0.9263
vn 0.0000 -1.0000 0.0000
vn 0.9263 -0.3769 0.0000
vn -0.9263 -0.3769 0.0000
vn 0.0000 -0.3769 -0.9263
s off
f 17/12/6 22/13/6 18/14/6
f 12/15/7 16/16/7 17/12/7
f 13/17/7 17/12/7 18/14/7
f 19/18/7 13/17/7 18/14/7
f 16/16/7 15/19/7 19/18/7
f 20/20/7 22/13/7 21/21/7
f 18/14/8 23/22/8 19/18/8
f 16/16/9 21/21/9 17/12/9
f 19/18/10 20/20/10 16/16/10
f 17/12/6 21/21/6 22/13/6
f 12/15/7 14/23/7 16/16/7
f 13/17/7 12/15/7 17/12/7
f 19/18/7 15/19/7 13/17/7
f 16/16/7 14/23/7 15/19/7
f 20/20/7 23/22/7 22/13/7
f 18/14/8 22/13/8 23/22/8
f 16/16/9 20/20/9 21/21/9
f 19/18/10 23/22/10 20/20/10
o Plane.002
v -7.000000 0.000000 3.000000
v 7.000000 0.000000 3.000000
v -7.000000 0.000000 -3.000000
v 7.000000 0.000000 -3.000000
v -5.000000 0.000000 3.000000
v -5.000000 0.000000 2.000000
v 5.000000 0.000000 2.000000
v 5.000000 0.000000 3.000000
v -7.000000 4.000000 3.000000
v 7.000000 4.000000 3.000000
v -7.000000 4.000000 -3.000000
v 7.000000 4.000000 -3.000000
v -5.000000 4.000000 3.000000
v -5.000000 4.000000 2.000000
v 5.000000 4.000000 2.000000
v 5.000000 4.000000 3.000000
v -7.000000 4.600000 3.000000
v 7.000000 4.600000 3.000000
v -7.000000 4.600000 -3.000000
v 7.000000 4.600000 -3.000000
v -7.000000 6.400000 0.000000
v 7.000000 6.400000 0.000000
v -5.000000 4.600000 3.000000
v 5.000000 4.600000 3.000000
vt 0.000000 0.000000
vt 0.000000 0.000000
vt 0.000000 0.000000
vt 0.000000 0.000000
vt 0.000000 0.000000
vt 0.000000 0.000000
vt 0.000000 0.000000
vt 0.000000 0.000000
vt 0.000000 0.000000
vt 0.000000 0.000000
vt 0.000000 0.000000
vt 0.000000 0.000000
vt 0.000000 0.000000
vt 0.000000 0.000000
vt 0.000000 0.000000
vt 0.000000 0.000000
vt 0.000000 0.000000
vt 0.000000 0.000000
vt 0.000000 0.000000
vt 0.000000 0.000000
vt 0.000000 0.000000
vt 0.000000 0.000000
vt 0.000000 0.000000
vt 0.000000 0.000000
vn 0.0000 0.0000 -1.0000
vn 0.0000 0.0000 1.0000
vn 1.0000 0.0000 0.0000
vn -1.0000 0.0000 0.0000
vn 0.0000 1.0000 0.0000
s off
f 37/24/11 30/25/11 29/26/11
f 35/27/12 26/28/12 27/29/12
f 32/30/11 28/31/11 24/32/11
f 38/33/13 31/34/13 30/25/13
f 36/35/14 29/26/14 28/31/14
f 33/36/14 27/29/14 25/37/14
f 34/38/13 24/32/13 26/28/13
f 31/34/11 33/36/11 25/37/11
f 43/39/12 34/38/12 35/27/12
f 41/40/14 35/27/14 33/36/14
f 42/41/13 32/30/13 34/38/13
f 40/42/13 42/41/13 44/43/13
f 43/39/14 41/40/14 45/44/14
f 39/45/15 37/24/15 36/35/15
f 46/46/11 39/45/11 36/35/11
f 32/30/11 46/46/11 36/35/11
f 47/47/11 33/36/11 39/45/11
f 37/24/11 38/33/11 30/25/11
f 35/27/12 34/38/12 26/28/12
f 32/30/11 36/35/11 28/31/11
f 38/33/13 39/45/13 31/34/13
f 36/35/14 37/24/14 29/26/14
f 33/36/14 35/27/14 27/29/14
f 34/38/13 32/30/13 24/32/13
f 31/34/11 39/45/11 33/36/11
f 43/39/12 42/41/12 34/38/12
f 41/40/14 43/39/14 35/27/14
f 42/41/13 40/42/13 32/30/13
f 39/45/15 38/33/15 37/24/15
f 46/46/11 47/47/11 39/45/11
f 32/30/11 40/42/11 46/46/11
f 47/47/11 41/40/11 33/36/11
o Plane.003
v -8.000000 4.000000 4.000000
v 8.000000 4.000000 4.000000
v -8.000000 4.000000 -4.000000
v 8.000000 4.000000 -4.000000
v -8.000000 6.400000 0.000000
v 8.000000 6.400000 0.000000
vt 0.000000 0.000000
vt 1.000000 0.000000
vt 1.000000 0.000000
vt 0.000000 1.000000
vt 1.000000 1.000000
vt 0.000000 0.000000
vn 0.0000 -0.8575 -0.5145
vn 0.0000 -0.8575 0.5145
s off
f 48/48/16 53/49/16 49/50/16
f 53/49/17 50/51/17 51/52/17
f 48/48/16 52/53/16 53/49/16
f 53/49/17 52/53/17 50/51/17
o Plane.004
v -5.000000 1.000000 2.500000
v 5.000000 1.000000 2.500000
v -5.000000 4.000000 2.500000
v 5.000000 4.000000 2.500000
vt 1.000000 0.000000
vt 0.000000 1.000000
vt 0.000000 0.000000
vt 1.000000 1.000000
vn 0.0000 0.0000 1.0000
s off
f 55/54/18 56/55/18 54/56/18
f 55/54/18 57/57/18 56/55/18
