# Blender v2.81 (sub 16) OBJ File: 'tree.blend'
# www.blender.org
mtllib tree.mtl
o tree
v -0.300000 0.000000 -0.200000
v -0.400000 0.000000 -0.400000
v -0.200000 0.000000 -0.300000
v 0.097506 0.000000 -0.347120
v 0.256816 0.000000 -0.504029
v 0.223514 0.000000 -0.282916
v 0.360262 0.000000 -0.014532
v 0.558721 0.000000 0.088493
v 0.338139 0.000000 0.125148
v 0.125148 0.000000 0.338139
v 0.088493 0.000000 0.558721
v -0.014532 0.000000 0.360262
v -0.282916 0.000000 0.223514
v -0.504029 0.000000 0.256816
v -0.347120 0.000000 0.09750
6
v -0.209368 0.400000 -0.209368
v 0.134423 0.400000 -0.263820
v 0.292446 0.400000 0.046319
v 0.046319 0.400000 0.292446
v -0.263820 0.400000 0.134423
v -0.146622 1.200000 -0.146622
v 0.094137 1.200000 -0.184755
v 0.204803 1.200000 0.032438
v 0.032438 1.200000 0.204803
v -0.184755 1.200000 0.094137
v -0.115827 1.900000 -0.115827
v 0.074366 1.900000 -0.145951
v 0.161788 1.900000 0.025625
v 0.025625 1.900000 0.161788
v -0.145951 1.900000 0.074366
v -0.081798 2.555255 -0.070302
v 0.052517 2.555255 -0.091575
v 0.114255 2.555255 0.029592
v 0.018096 2.555255 0.125751
v -0.103071 2.555255 0.064013
v 0.090428 2.358173 0.014740
v 0.050966 2.377155 -0.063936
v 0.074796 2.442394 -0.016426
v 0.652605 2.369186 -0.317694
v 0.625777 2.382092 -0.371182
v 0.641977 2.426444 -0.338882
v 1.060515 2.438790 -0.628997
v -0.023287 1.854418 -0.016104
v -0.106873 1.873401 0.011473
v -0.056398 1.938640 -0.005180
v -0.381181 1.865432 -0.583746
v -0.438006 1.878337 -0.564997
v -0.403691 1.922689 -0.576319
v -0.509616 1.972008 -1.138284
v -0.071998 2.085498 0.051415
v 0.001177 2.104481 0.100330
v -0.043011 2.169720 0.070792
v -0.252969 2.096512 0.493350
v -0.203221 2.109417 0.526604
v -0.233262 2.153769 0.506523
v -0.653606 2.272412 1.182563
vt 0.652541 0.012335
vt 0.664101 0.142820
vt 0.724323 0.000000
vt 0.301305 0.980815
vt 0.301305 0.830308
vt 0.249478 0.953789
vt 0.262594 0.807002
vt 0.279351 0.677763
vt 0.331679 0.825345
vt 0.130469 0.988279
vt 0.000000 0.936130
vt 0.130381 0.928701
vt 0.816390 0.011834
vt 0.837137 0.143866
vt 0.874257 0.000000
vt 0.327772 0.728009
vt 0.277306 0.626816
vt 0.259480 0.729421
vt 0.950484 0.940142
vt 1.000000 0.816685
vt 1.000000 0.971865
vt 0.249478 0.830308
vt 0.249478 0.981413
vt 0.189088 0.871109
vt 0.501653 0.845855
vt 0.512616 0.715318
vt 0.573490 0.857861
vt 0.000000 0.736040
vt 0.105744 0.631020
vt 0.068766 0.754814
vt 0.421934 0.699939
vt 0.423179 0.832546
vt 0.166630 0.704421
vt 0.377745 0.824954
vt 0.331679 0.685083
vt 0.130469 0.830308
vt 0.724323 0.155008
vt 0.950483 0.816685
vt 0.874257 0.878624
vt 0.950484 0.984972
vt 0.173319 0.680361
vt 0.130469 0.944721
vt 0.189088 0.830308
vt 0.189088 1.000000
vt 0.573490 0.158616
vt 0.617582 0.416072
vt 0.219416 0.437645
vt 0.293671 0.435826
vt 0.766662 0.414081
vt 0.464852 0.442283
vt 0.528357 0.453054
vt 0.681037 0.405010
vt 0.656127 0.641389
vt 0.845667 0.406278
vt 0.796984 0.640137
vt 0.552536 0.225299
vt 0.256547 0.229597
vt 0.315206 0.228159
vt 0.401645 0.431880
vt 0.502369 0.216791
vt 0.573490 0.011812
vt 0.331679 0.031191
vt 0.502800 0.000000
vt 0.538061 0.005804
vt 0.688922 0.852867
vt 0.724323 0.846696
vt 0.859395 0.633973
vt 0.830182 0.851793
vt 0.288961 0.000000
vt 0.330880 0.011287
vt 0.286936 0.749468
vt 0.955342 0.001146
vt 0.931386 0.213019
vt 0.926548 0.000000
vt 0.963010 0.401393
vt 0.943377 0.400302
vt 0.949255 0.613562
vt 0.936341 0.403077
vt 0.962602 0.614303
vt 0.944471 0.615449
vt 0.950962 0.213798
vt 0.955342 0.378070
vt 0.963010 0.780489
vt 0.897787 0.397483
vt 0.893810 0.183561
vt 0.926548 0.400302
vt 0.907645 0.797711
vt 0.936341 0.800205
vt 0.936341 0.582064
vt 0.926284 0.795858
vt 0.916832 0.580368
vt 0.929504 0.579109
vt 0.874257 0.181645
vt 0.926548 0.000000
vt 0.913726 0.400302
vt 0.879437 0.813469
vt 0.893435 0.661311
vt 0.907645 0.816685
vt 0.992001 0.013836
vt 0.966332 0.000000
vt 0.955342 0.101719
vt 0.968746 0.025666
vt 0.972793 0.111125
vt 0.956984 0.119168
vt 0.874257 0.659124
vt 0.907645 0.400302
vt 0.963010 0.401616
vt 0.982479 0.574241
vt 0.982479 0.400302
vt 0.992001 0.250722
vt 0.706255 0.632651
vt 0.452437 0.208573
vt 0.290253 0.032206
vt 0.874257 0.847440
vt 0.263852 0.012929
vt 0.170837 0.809250
vt 0.127244 0.797513
vt 0.129104 0.830308
vt 0.067935 0.734114
vt 0.288705 0.793557
vt 0.123550 0.705477
vt 0.122784 0.672816
vn -0.8748 0.2085 0.4374
vn 0.4374 0.2085 -0.8748
vn -0.6863 0.2085 -0.6968
vn 0.9671 0.2085 0.1457
vn 0.4506 0.2085 -0.8680
vn 0.1603 0.2085 0.9648
vn 0.9648 0.2085 0.1603
vn -0.8680 0.2085 0.4506
vn 0.1457 0.2085 0.9671
vn -0.6968 0.2085 -0.6863
vn -0.4434 0.2150 0.8702
vn 0.6906 0.2150 0.6906
vn 0.8702 0.2150 -0.4434
vn -0.1528 0.2150 -0.9646
vn -0.9646 0.2150 -0.1528
vn -0.9837 0.0894 -0.1558
vn -0.1558 0.0894 -0.9837
vn 0.8874 0.0894 -0.4522
vn 0.7043 0.0894 0.7043
vn -0.4522 0.0894 0.8874
vn -0.9864 0.0503 -0.1562
vn 0.8899 0.0503 -0.4534
vn -0.4534 0.0503 0.8899
vn -0.1562 0.0503 -0.9864
vn 0.7062 0.0503 0.7062
vn -0.4536 0.0437 0.8902
vn -0.1560 0.0765 -0.9848
vn 0.7063 0.0470 0.7063
vn -0.9858 0.0620 -0.1561
vn 0.8890 0.0672 -0.4530
vn 0.0000 1.0000 -0.0000
vn 0.0000 -1.0000 0.0000
vn -0.0928 -0.9775 -0.1893
vn 0.4649 0.3819 0.7988
vn -0.3697 0.6314 -0.6816
vn -0.0095 -0.9731 -0.2300
vn 0.5194 0.3797 0.7655
vn -0.4563 0.6267 -0.6317
vn -0.1888 -0.9769 0.1001
vn 0.7880 0.3733 -0.4896
vn -0.6758 0.6233 0.3935
vn -0.2585 -0.9580 -0.1242
vn 0.9153 0.3779 -0.1394
vn -0.7505 0.6309 0.1968
vn 0.1863 -0.9773 0.1006
vn -0.8540 0.3765 -0.3591
vn 0.7050 0.6273 0.3308
vn 0.0613 -0.9580 0.2801
vn -0.7531 0.3824 -0.5354
vn 0.7060 0.6271 0.3289
usemtl None
s off
f 1/1/1 16/2/1 2/3/1
f 2/4/2 16/5/2 3/6/2
f 4/7/3 17/8/3 5/9/3
f 5/10/4 17/11/4 6/12/4
f 7/13/5 18/14/5 8/15/5
f 8/16/6 18/17/6 9/18/6
f 10/19/7 19/20/7 11/21/7
f 11/22/8 19/23/8 12/24/8
f 13/25/9 20/26/9 14/27/9
f 14/28/10 20/29/10 15/30/10
f 20/26/11 13/25/11 19/31/11
f 13/25/11 12/32/11 19/31/11
f 10/33/12 9/18/12 18/17/12
f 19/31/12 10/34/12 18/35/12
f 7/36/13 6/12/13 17/11/13
f 18/14/13 7/13/13 17/37/13
f 4/38/14 3/39/14 16/40/14
f 17/8/14 4/7/14 16/41/14
f 15/42/15 20/43/15 1/44/15
f 16/2/15 1/1/15 20/45/15
f 16/2/16 20/45/16 25/46/16
f 17/8/17 21/47/17 22/48/17
f 18/14/18 17/37/18 22/49/18
f 18/35/19 24/50/19 19/31/19
f 19/31/20 25/51/20 20/26/20
f 21/52/21 25/46/21 30/53/21
f 23/54/22 22/49/22 27/55/22
f 24/50/23 30/56/23 25/51/23
f 22/48/24 26/57/24 27/58/24
f 23/59/25 29/60/25 24/50/25
f 29/60/26 35/61/26 30/56/26
f 26/57/27 32/62/27 27/58/27
f 29/60/28 33/63/28 34/64/28
f 30/53/29 35/65/29 31/66/29
f 28/67/30 27/55/30 32/68/30
f 34/69/31 33/70/31 32/62/31
f 9/18/32 4/7/32 7/71/32
f 37/72/33 39/73/33 36/74/33
f 38/75/34 36/76/34 39/77/34
f 37/78/35 41/79/35 40/80/35
f 37/72/33 40/81/33 39/73/33
f 38/75/34 39/77/34 41/79/34
f 37/78/35 38/75/35 41/79/35
f 39/73/36 40/81/36 42/82/36
f 39/77/37 42/83/37 41/79/37
f 40/80/38 41/79/38 42/83/38
f 44/84/39 46/85/39 43/86/39
f 45/87/40 43/88/40 46/89/40
f 44/90/41 48/91/41 47/92/41
f 44/84/39 47/93/39 46/85/39
f 45/87/40 46/89/40 48/91/40
f 44/90/41 45/87/41 48/91/41
f 46/85/42 47/93/42 49/94/42
f 46/89/43 49/95/43 48/91/43
f 47/92/44 48/91/44 49/95/44
f 51/96/45 53/97/45 50/98/45
f 52/99/46 50/100/46 53/101/46
f 51/102/47 55/103/47 54/104/47
f 51/96/45 54/105/45 53/97/45
f 52/99/46 53/101/46 55/103/46
f 51/102/47 52/99/47 55/103/47
f 53/97/48 54/105/48 56/106/48
f 53/107/49 56/108/49 55/109/49
f 54/104/50 55/103/50 56/110/50
f 16/2/16 25/46/16 21/52/16
f 17/8/17 16/41/17 21/47/17
f 18/14/18 22/49/18 23/54/18
f 18/35/19 23/59/19 24/50/19
f 19/31/20 24/50/20 25/51/20
f 21/52/21 30/53/21 26/111/21
f 23/54/22 27/55/22 28/67/22
f 24/50/23 29/60/23 30/56/23
f 22/48/24 21/47/24 26/57/24
f 23/59/25 28/112/25 29/60/25
f 29/60/26 34/64/26 35/61/26
f 26/57/27 31/113/27 32/62/27
f 29/60/28 28/112/28 33/63/28
f 30/53/29 31/66/29 26/111/29
f 28/67/30 32/68/30 33/114/30
f 31/113/31 35/115/31 32/62/31
f 35/115/31 34/69/31 32/62/31
f 3/116/32 1/117/32 2/118/32
f 15/30/32 13/119/32 14/28/32
f 3/116/32 15/30/32 1/117/32
f 6/120/32 4/7/32 5/9/32
f 4/7/32 12/121/32 3/116/32
f 3/116/32 12/121/32 15/30/32
f 15/30/32 12/121/32 13/119/32
f 12/121/32 10/33/32 11/122/32
f 9/18/32 7/71/32 8/16/32
f 12/121/32 9/18/32 10/33/32
f 7/71/32 4/7/32 6/120/32
f 12/121/32 4/7/32 9/18/32
o leaves
v 0.694358 1.925692 -0.335877
v 1.070123 1.972572 -0.594530
v 0.637586 2.380747 -0.335877
v 1.013351 2.427627 -0.594530
v 0.209659 2.644323 -0.495472
v 0.583680 2.701313 -0.754623
v 0.444738 2.365429 -0.217525
v 0.818759 2.422419 -0.476677
v 0.387817 2.739805 0.223252
v 0.766439 2.697984 -0.032082
v 0.175862 2.430126 -0.040323
v 0.554483 2.388305 -0.295658
v -0.341039 1.416958 -0.688733
v -0.517958 1.463838 -1.109210
v -0.352573 1.872013 -0.633145
v -0.529491 1.918893 -1.053622
v -0.595776 2.135589 -0.246566
v -0.773538 2.192579 -0.665435
v -0.275868 1.856695 -0.420275
v -0.453629 1.913684 -0.839144
v 0.144153 2.231071 -0.274993
v -0.028936 2.189250 -0.697592
v -0.156986 1.921392 -0.121005
v -0.330075 1.879571 -0.543604
v -0.223375 1.639023 0.532491
v -0.011697 1.685903 0.128396
v -0.273588 2.094078 0.558979
v -0.061910 2.140958 0.154884
v -0.726545 2.357654 0.617479
v -0.516643 2.414644 0.213757
v -0.388940 2.078760 0.753637
v -0.179037 2.135749 0.349914
v -0.202294 2.533280 1.148600
v -0.002342 2.412787 0.753886
v -0.555123 2.255854 1.054555
v -0.355172 2.135361 0.659841
v 0.694358 1.925692 -0.335877
v 1.070123 1.972572 -0.594530
v 0.637586 2.380747 -0.335877
v 1.013351 2.427627 -0.594530
v 0.209659 2.644323 -0.495472
v 0.583680 2.701313 -0.754623
v 0.444738 2.365429 -0.217525
v 0.818759 2.422419 -0.476677
v 0.387817 2.739805 0.223252
v 0.766439 2.697984 -0.032082
v 0.175862 2.430126 -0.040323
v 0.554483 2.388305 -0.295658
v -0.341039 1.416958 -0.688733
v -0.517958 1.463838 -1.109210
v -0.352573 1.872013 -0.633145
v -0.529491 1.918893 -1.053622
v -0.595776 2.135589 -0.246566
v -0.773538 2.192579 -0.665435
v -0.275868 1.856695 -0.420275
v -0.453629 1.913684 -0.839144
v 0.144153 2.231071 -0.274993
v -0.028936 2.189250 -0.697592
v -0.156986 1.921392 -0.121005
v -0.330075 1.879571 -0.543604
v -0.223375 1.639023 0.532491
v -0.011697 1.685903 0.128396
v -0.273588 2.094078 0.558979
v -0.061910 2.140958 0.154884
v -0.726545 2.357654 0.617479
v -0.516643 2.414644 0.213757
v -0.388940 2.078760 0.753637
v -0.179037 2.135749 0.349914
v -0.202294 2.533280 1.148600
v -0.002342 2.412787 0.753886
v -0.555123 2.255854 1.054555
v -0.355172 2.135361 0.659841
vt 0.999899 0.999899
vt 0.000100 0.000101
vt 0.999899 0.000100
vt 0.999899 0.999899
vt 0.000100 0.000101
vt 0.999899 0.000100
vt 0.999899 0.999899
vt 0.000100 0.000101
vt 0.999899 0.000100
vt 0.999899 0.999899
vt 0.000100 0.000101
vt 0.999899 0.000100
vt 0.999899 0.999899
vt 0.000100 0.000101
vt 0.999899 0.000100
vt 0.999899 0.999899
vt 0.000100 0.000101
vt 0.999899 0.000100
vt 0.999899 0.999899
vt 0.000100 0.000101
vt 0.999899 0.000100
vt 0.999899 0.999899
vt 0.000100 0.000101
vt 0.999899 0.000100
vt 0.999899 0.000100
vt 0.000100 0.999900
vt 0.000100 0.000101
vt 0.000100 0.000101
vt 0.999899 0.999899
vt 0.999899 0.000100
vt 0.000100 0.000101
vt 0.999899 0.999899
vt 0.999899 0.000100
vt 0.999899 0.000100
vt 0.000100 0.999900
vt 0.999899 0.999899
vt 0.000100 0.000101
vt 0.999899 0.999899
vt 0.999899 0.000100
vt 0.000100 0.000101
vt 0.999899 0.999899
vt 0.999899 0.000100
vt 0.000100 0.000101
vt 0.999899 0.999899
vt 0.999899 0.000100
vt 0.000100 0.000101
vt 0.999899 0.999899
vt 0.999899 0.000100
vt 0.000100 0.000101
vt 0.999899 0.999899
vt 0.999899 0.000100
vt 0.000100 0.000101
vt 0.999899 0.999899
vt 0.999899 0.000100
vt 0.000100 0.999900
vt 0.000100 0.999900
vt 0.000100 0.999900
vt 0.000100 0.999900
vt 0.000100 0.999900
vt 0.000100 0.999900
vt 0.000100 0.999900
vt 0.000100 0.999900
vt 0.999899 0.999899
vt 0.000100 0.999900
vt 0.000100 0.999900
vt 0.000100 0.000101
vt 0.000100 0.999900
vt 0.000100 0.999900
vt 0.000100 0.999900
vt 0.000100 0.999900
vt 0.000100 0.999900
vt 0.000100 0.999900
vn 0.5597 0.0698 0.8258
vn -0.2684 -0.7840 -0.5597
vn -0.3236 0.7319 -0.5997
vn 0.9222 0.0698 -0.3803
vn -0.6026 -0.7840 0.1491
vn -0.6529 0.7319 0.1950
vn 0.8803 0.0698 0.4692
vn -0.4985 -0.7840 -0.3699
vn -0.4668 0.7517 -0.4659
vn -0.5597 -0.0698 -0.8258
vn 0.2684 0.7840 0.5597
vn 0.3236 -0.7319 0.5997
vn -0.9222 -0.0698 0.3803
vn 0.6026 0.7840 -0.1491
vn 0.6529 -0.7319 -0.1950
vn -0.8803 -0.0698 -0.4692
vn 0.4985 0.7840 0.3699
vn 0.4668 -0.7517 0.4659
usemtl None
s off
f 58/123/51 59/124/51 57/125/51
f 62/126/52 63/127/52 61/128/52
f 66/129/53 67/130/53 65/131/53
f 70/132/54 71/133/54 69/134/54
f 74/135/55 75/136/55 73/137/55
f 78/138/56 79/139/56 77/140/56
f 82/141/57 83/142/57 81/143/57
f 86/144/58 87/145/58 85/146/58
f 89/147/59 92/148/59 91/149/59
f 95/150/60 94/151/60 93/152/60
f 99/153/61 98/154/61 97/155/61
f 101/156/62 104/157/62 102/158/62
f 107/159/63 106/160/63 105/161/63
f 111/162/64 110/163/64 109/164/64
f 115/165/65 114/166/65 113/167/65
f 119/168/66 118/169/66 117/170/66
f 123/171/67 122/172/67 121/173/67
f 127/174/68 126/175/68 125/176/68
f 58/123/51 60/177/51 59/124/51
f 62/126/52 64/178/52 63/127/52
f 66/129/53 68/179/53 67/130/53
f 70/132/54 72/180/54 71/133/54
f 74/135/55 76/181/55 75/136/55
f 78/138/56 80/182/56 79/139/56
f 82/141/57 84/183/57 83/142/57
f 86/144/58 88/184/58 87/145/58
f 89/147/59 90/185/59 92/148/59
f 95/150/60 96/186/60 94/151/60
f 99/153/61 100/187/61 98/154/61
f 101/156/62 103/188/62 104/157/62
f 107/159/63 108/189/63 106/160/63
f 111/162/64 112/190/64 110/163/64
f 115/165/65 116/191/65 114/166/65
f 119/168/66 120/192/66 118/169/66
f 123/171/67 124/193/67 122/172/67
f 127/174/68 128/194/68 126/175/68
